<?xml version="1.0" encoding="UTF-8"?>
<svg id="Layer_1" xmlns="http://www.w3.org/2000/svg" version="1.1" viewBox="0 0 184 36">
  <!-- Generator: Adobe Illustrator 29.7.1, SVG Export Plug-In . SVG Version: 2.1.1 Build 8)  -->
  <path d="M133.8059,33.5682c-1.8301,0-3.3467-.2943-4.5505-.8819-1.2032-.5992-2.1127-1.4028-2.7268-2.4113-.3261-.5394-.5701-1.1334-.7332-1.7813-.1503-.6479-.2255-1.3679-.2255-2.1593v-10.653h4.4568v10.203c0,.5881.0434,1.0979.1313,1.5293.0879.4203.2191.7867.3949,1.0979.3007.5283.7268.9238,1.279,1.1879.551.2515,1.2091.378,1.974.378.8025,0,1.4854-.144,2.0497-.4319.5765-.288,1.0095-.7258,1.298-1.3139.288-.5633.432-1.3489.4325-2.3573v-10.2931h4.4562v10.653c0,1.416-.2573,2.6093-.7708,3.5806-.2885.5521-.6644,1.0566-1.1281,1.5119-.4516.4441-.991.8274-1.6172,1.1514-.6146.3123-1.3165.5521-2.1063.7199-.7771.18-1.649.27-2.614.27M17.438,33.1183h-2.4695c-1.099,0-1.9894-.8904-1.9894-1.9888v-8.6276c0-.3722-.0127-.7194-.0376-1.0439-.0254-.324-.0694-.6056-.1318-.8459-.1376-.5273-.4076-.9529-.8084-1.2774-.3891-.324-.9534-.4918-1.6924-.504-.3891,0-.7898.054-1.2038.162-.4134.108-.8274.2642-1.2408.4679-.4013.1922-.7898.4314-1.1657.7194-.3637.2763-.6956.5887-.9968.9359l.0027,12.0024h-2.47c-1.0984,0-1.9888-.8904-1.9888-1.9888l-.0006-15.448h3.686l.4134,2.4293c.3388-.36.6707-.7136,1.072-1.0614.4007-.3478.8523-.6538,1.3536-.9179.514-.2636,1.0714-.4733,1.6739-.63.6141-.1678,1.2594-.2514,1.937-.252,1.2032,0,2.281.2584,3.2344.7739.9645.504,1.6982,1.2954,2.2001,2.3753.4261-.4679.8141-.8936,1.2408-1.2779.4383-.3833.9211-.7136,1.4478-.9894.5267-.2758,1.091-.4913,1.6929-.6479.6135-.1556,1.2657-.2335,1.9555-.234,1.3033.0127,2.3943.2763,3.272.7919.8893.504,1.5727,1.2001,2.0497,2.0873.125.2282.2314.4802.3197.7559.0874.2642.1562.5638.2065.8994.0625.3367.1064.7083.1318,1.1159.0249.4081.0371.8761.0376,1.4034v10.815h-2.4695c-1.0984,0-1.9894-.8904-1.9894-1.9888l.0021-8.6276c0-.3722-.0127-.7194-.0376-1.0439-.0249-.324-.0693-.6056-.1318-.8459-.1376-.5273-.4076-.9529-.8084-1.2774-.4013-.324-.9656-.4918-1.6924-.504-.3891,0-.7898.054-1.2038.162-.4135.108-.8274.2642-1.2408.4679-.4013.1922-.7898.4314-1.1657.7194-.3636.2763-.6956.5887-.9968.9359l.0021,12.0024ZM34.1311,24.4361c0-2.8607,2.2186-5.1799,4.956-5.1799s4.9554,2.3192,4.9554,5.1799-2.2186,5.1793-4.9554,5.1793-4.956-2.3187-4.956-5.1793M30.3472,24.4351c0-5.0444,3.9126-9.1343,8.7393-9.1343s8.7388,4.0899,8.7388,9.1343-3.9126,9.1337-8.7388,9.1337-8.7393-4.0894-8.7393-9.1337M65.1934,33.1183h-2.47c-1.0985,0-1.9889-.8904-1.9889-1.9888v-8.6276c0-.3722-.0132-.7194-.0381-1.0439-.0249-.324-.0688-.6056-.1313-.8459-.1382-.5273-.4081-.9529-.8084-1.2774-.3891-.324-.9534-.4918-1.6929-.504-.3891,0-.7893.054-1.2032.162-.4135.108-.8274.2642-1.2408.4679-.4018.1922-.7903.4314-1.1662.7194-.3636.2763-.6956.5887-.9968.9359l.0027,12.0024h-2.4695c-1.099,0-1.9894-.8904-1.9894-1.9888l-.0005-15.448h3.686l.4135,2.4293c.3388-.36.6707-.7136,1.0719-1.0614.4008-.3478.8523-.6538,1.3541-.9179.5135-.2636,1.0709-.4733,1.6733-.63.6146-.1678,1.2594-.2514,1.9369-.252,1.2038,0,2.2811.2584,3.2345.7739.965.504,1.6982,1.2954,2.2,2.3753.4261-.4679.8147-.8936,1.2414-1.2779.4383-.3833.9206-.7136,1.4478-.9894.5267-.2758,1.0905-.4913,1.6924-.6479.614-.1556,1.2657-.2335,1.9555-.234,1.3033.0127,2.3938.2763,3.2721.7919.8899.504,1.5733,1.2001,2.0497,2.0873.1255.2282.2314.4802.3197.7559.0873.2642.1561.5638.207.8994.0625.3367.1064.7083.1313,1.1159.0249.4081.0371.8761.0381,1.4034v10.815h-2.4701c-1.0984,0-1.9888-.8904-1.9888-1.9888l.0021-8.6276c0-.3722-.0132-.7194-.0381-1.0439-.0249-.324-.0688-.6056-.1313-.8459-.1382-.5273-.4081-.9529-.8083-1.2774-.4018-.324-.9661-.4918-1.6929-.504-.3891,0-.7893.054-1.2032.162-.4135.108-.8274.2642-1.2408.4679-.4018.1922-.7904.4314-1.1662.7194-.3637.2763-.6956.5887-.9968.9359l.0027,12.0024ZM100.6267,33.1183h-2.4695c-1.099,0-1.9894-.8904-1.9894-1.9888l.0021-15.448h3.686l.4134,2.4293c.3383-.36.6702-.7136,1.072-1.0614.4008-.3478.8587-.6538,1.3727-.9179.5135-.2636,1.0778-.4733,1.6924-.63.6263-.1678,1.2912-.2514,1.9931-.252.6644,0,1.3039.072,1.9184.216.6263.144,1.1969.3727,1.7109.684.514.3001.965.6961,1.3541,1.1879.4008.4802.7141,1.0556.9402,1.7273.1255.3721.2059.7798.2446,1.2234.0498.432.0747.9359.0752,1.5119v11.3184h-2.4701c-1.0984,0-1.9888-.8904-1.9888-1.9888l.0021-8.6637c0-.4685-.0191-.8697-.0566-1.2059-.0376-.3356-.1069-.6294-.2065-.8819-.2255-.5516-.5707-.9476-1.0344-1.1874-.4516-.2398-1.0032-.3594-1.6548-.36-.865,0-1.6988.198-2.5008.5939-.7903.3838-1.4923.9481-2.1063,1.6913v12.0024ZM159.8582,33.1183h-2.4695c-1.0984,0-1.9894-.8904-1.9894-1.9888v-8.6276c0-.3722-.0127-.7194-.037-1.0439-.0254-.324-.0698-.6056-.1318-.8459-.1382-.5273-.4076-.9529-.8089-1.2774-.3891-.324-.9529-.4918-1.6924-.504-.3891,0-.7898.054-1.2032.162-.414.108-.8274.2642-1.2414.4679-.4012.1922-.7898.4314-1.1657.7194-.3636.2763-.6956.5887-.9968.9359l.0026,12.0024h-2.47c-1.0984,0-1.9888-.8904-1.9888-1.9888l-.0005-15.448h3.686l.414,2.4293c.3383-.36.6702-.7136,1.0714-1.0614.4008-.3478.8523-.6538,1.3541-.9179.5135-.2636,1.0709-.4733,1.6733-.63.614-.1678,1.2594-.2514,1.9369-.252,1.2033,0,2.2811.2584,3.2344.7739.9645.504,1.6982,1.2954,2.2,2.3753.4261-.4679.8147-.8936,1.2408-1.2779.4383-.3833.9211-.7136,1.4484-.9894.5262-.2758,1.0905-.4913,1.6924-.6479.6135-.1556,1.2657-.2335,1.9555-.234,1.3033.0127,2.3943.2763,3.272.7919.8893.504,1.5727,1.2001,2.0497,2.0873.125.2282.2314.4802.3197.7559.0874.2642.1562.5638.207.8994.0619.3367.1059.7083.1313,1.1159.0249.4081.0371.8761.0376,1.4034v10.815h-2.4695c-1.0984,0-1.9894-.8904-1.9894-1.9888l.0021-8.6276c0-.3722-.0127-.7194-.037-1.0439-.0254-.324-.0699-.6056-.1318-.8459-.1382-.5273-.4076-.9529-.8089-1.2774-.4013-.324-.9656-.4918-1.6924-.504-.3886,0-.7898.054-1.2032.162-.414.108-.8274.2642-1.2414.4679-.4012.1922-.7893.4314-1.1657.7194-.3636.2763-.6956.5887-.9968.9359l.0021,12.0024ZM87.159,29.5906c3.8591-.135,5.6558-1.4076,7.5657-3.5896l-.001,4.3757c-1.3229,1.3478-3.5272,2.4287-5.6489,2.9094-5.0237,1.1392-9.0882-1.7633-10.4773-5.8347l-.1027-.2626c-.3102-1.0233-.4304-2.0777-.3817-3.1169.1567-3.7543,2.5251-7.3101,6.1422-8.4006,4.3604-1.3155,9.9219.7576,10.8102,6.9453l-10.1729,4.1624s-.766-1.0381-.5643-2.1243c.1689-.9084,1.2853-1.4357,1.2853-1.4357l5.028-2.1302c-1.1095-1.5611-3.1471-2.3933-5.2651-1.6103-1.6336.604-3.1227,2.0143-3.4207,4.1439-.0212.153-.0418.3097-.0503.4701-.0243.3854-.01.7925.0477,1.2202.4002,2.7008,2.8125,4.3614,5.2058,4.2778M124.2524,33.1003c-.5019.144-1.1032.2578-1.8052.342-.6897.0836-1.335.1255-1.9369.126-1.5293,0-2.7829-.234-3.7606-.7019-.9661-.4796-1.6495-1.1636-2.0497-2.0513-.2885-.6358-.4325-1.4992-.4325-2.5913V10.491h4.4562v5.1904h5.2651v3.5092h-5.2651v8.4752c0,.6723.1064,1.1699.3197,1.4939.3764.5521,1.1217.8274,2.2376.8274.514,0,1.0217-.036,1.5235-.1075.5135-.0842.9958-.1858,1.4478-.3065v3.5272Z" fill="#fff" fill-rule="evenodd"/>
  <path d="M169.4154,14.0032c-.18.4045-.4744,1.0937-.522,1.3928-.099.6146.333,1.1593.333,1.1593,0,0-.8888-.379-.7025-1.4743.0413-.2398.2467-.6803.4044-.9931-.3197.0328-.7348.0339-1.2223-.0556-.1811.4076-.4627,1.0715-.5093,1.3637-.099.6146.333,1.1593.333,1.1593,0,0-.8888-.379-.7025-1.4743.0477-.2801.3208-.8343.4791-1.1392-.4929-.1324-1.0455-.3584-1.6405-.7268-1.542-.9545-2.4383-2.9354-2.3494-4.3318.0884-1.3965,1.0275-2.0555,1.7316-3.047.5018-.7067.4722-1.4404.838-2.1276.3653-.6876.7909-1.2773,2.054-1.2773s1.6622.9973,1.6622.9973l1.8946.6887-1.5733.1339s-.1032.6278-.3388.9089c-.6887.8232-.6151,1.6305-.0709,2.4383.3494.5188,2.1212,1.2896,3.7506,2.2763,1.6288.9857,2.9734,3.8173,2.9734,3.8173l-1.7924-.9402s1.8062,1.7173,2.7035,2.6151c.8978.8973,5.5637,4.2445,5.5637,4.2445h-.4987s.72.3658.4987.6315c-.2218.2657-.6315,0-.6315,0,0,0-.3219.0111-.7321.0556-.4097.0445-.5871-.3213-.5871-.3213,0,0-.0439.2768-.7644.0884-.7205-.1884-2.7596-2.2165-2.7596-2.2165,0,0-.3102,0-.8534-.0884-.5426-.0889-2.9808-2.2609-2.9808-2.2609,0,0-.3658.3213-.9974.0556s-2.7485-1.6294-2.7485-1.6294c0,0-.0847.0371-.2424.0773" fill="#86bc25"/>
</svg>