<?xml version="1.0" encoding="UTF-8"?>
<svg id="Layer_1" xmlns="http://www.w3.org/2000/svg" version="1.1" viewBox="0 0 36 36">
  <!-- Generator: Adobe Illustrator 29.7.1, SVG Export Plug-In . SVG Version: 2.1.1 Build 8)  -->
  <path d="M23.5147,14.5396c-.1588.3569-.4186.9651-.4606,1.229-.0874.5423.2938,1.023.2938,1.023,0,0-.7843-.3344-.6199-1.301.0364-.2116.2177-.6003.3569-.8764-.2822.029-.6484.0299-1.0786-.0491-.1598.3597-.4083.9455-.4494,1.2034-.0873.5423.2938,1.023.2938,1.023,0,0-.7843-.3344-.6199-1.301.0421-.2471.2831-.7362.4228-1.0053-.4349-.1168-.9226-.3163-1.4477-.6414-1.3608-.8423-2.1517-2.5903-2.0732-3.8226.078-1.2323.9067-1.8139,1.528-2.6889.4429-.6236.4167-1.2711.7395-1.8775.3223-.6068.6979-1.1272,1.8125-1.1272s1.4668.8801,1.4668.8801l1.6719.6078-1.3883.1182s-.0911.554-.299.8021c-.6078.7264-.5428,1.4388-.0626,2.1516.3083.4578,1.8719,1.138,3.3097,2.0087,1.4374.8698,2.6239,3.3686,2.6239,3.3686l-1.5817-.8297s1.5939,1.5154,2.3857,2.3077c.7923.7918,4.9096,3.7455,4.9096,3.7455h-.4401s.6353.3228.4401.5573c-.1957.2345-.5573,0-.5573,0,0,0-.284.0098-.6461.0491-.3615.0392-.5181-.2836-.5181-.2836,0,0-.0388.2443-.6745.078-.6358-.1663-2.4352-1.9559-2.4352-1.9559,0,0-.2738,0-.753-.078-.4788-.0785-2.6304-1.9952-2.6304-1.9952,0,0-.3228.2835-.8801.049s-2.4254-1.4379-2.4254-1.4379c0,0-.0747.0327-.2139.0682" fill="#86bc25"/>
  <path d="M15.125,31.6721h-2.1984c-.9776,0-1.7699-.792-1.7699-1.77v-7.6783c0-.3307-.0112-.6404-.0331-.9288-.023-.2886-.0618-.5394-.1174-.7533-.123-.4691-.3633-.8479-.7199-1.1368-.3459-.2883-.8485-.4374-1.506-.4481-.3459,0-.7025.0477-1.0708.144-.3678.096-.7367.235-1.1045.4164-.3577.171-.703.3841-1.0383.6404-.3234.2457-.6188.5236-.8867.8328l.0022,10.6817h-2.1978c-.9776,0-1.77-.792-1.77-1.77l-.0005-13.7482h3.2799l.3678,2.1619c.3021-.3201.5969-.6348.9546-.9445.3566-.3097.7581-.5815,1.205-.817.4565-.2347.9529-.4214,1.4892-.5604.5464-.1496,1.1208-.224,1.7239-.2246,1.0708,0,2.0305.2299,2.8784.6893.8586.4481,1.5111,1.1525,1.9586,2.1136.379-.4164.7244-.7951,1.1039-1.1368.3903-.3414.8198-.6354,1.2887-.881.4689-.2454.9709-.4377,1.5066-.5767.5458-.1384,1.1259-.2077,1.7402-.2083,1.1601.0115,2.131.2457,2.9121.7047.7918.4486,1.3999,1.068,1.8244,1.8581.1112.2033.2061.4273.2841.6724.0775.2353.1387.502.1842.8008.0556.2993.0944.6303.1174.9931.0219.3633.0326.7794.0331,1.2488v9.6249h-2.1978c-.9782,0-1.7699-.792-1.7699-1.77l.0017-7.6783c0-.3307-.0118-.6404-.0337-.9288-.0225-.2886-.0618-.5394-.1168-.7533-.1235-.4691-.3633-.8479-.7199-1.1368-.3571-.2883-.8591-.4374-1.506-.4481-.3465,0-.703.0477-1.0714.144-.3678.096-.7362.235-1.1045.4164-.3571.171-.703.3841-1.0372.6404-.324.2457-.6194.5236-.8872.8328l.0017,10.6817Z" fill="#004f9e" fill-rule="evenodd"/>
</svg>