<?xml version="1.0" encoding="UTF-8"?>
<svg id="Layer_1" xmlns="http://www.w3.org/2000/svg" version="1.1" viewBox="0 0 49.5277 36">
  <!-- Generator: Adobe Illustrator 29.7.1, SVG Export Plug-In . SVG Version: 2.1.1 Build 8)  -->
  <path d="M24.9035,31.1281c-11.1269,0-18.5594-5.744-18.5594-13.0894S13.7784,4.9493,24.9035,4.9493c11.1479,0,18.5587,5.7446,18.5587,13.0894s-7.439,13.0894-18.5587,13.0894h0Z" fill="#fff"/>
  <path d="M24.8921.6529c-2.0826.0773-2.4419,1.3543-4.8139,1.7996-2.0047.3019-3.4488-.7122-5.3062-.1105-1.7011.6244-2.1365,2.2401-3.8142,3.3761-1.5957.9979-3.7836.9212-4.8845,2.1931-1.2027,1.439-.7912,3.1697-1.5094,5.2202-.8229,2.0877-2.3407,2.8145-2.3407,4.8962,0,2.1221,1.5256,2.8199,2.3509,4.9162.7241,2.0868.2683,3.7207,1.5076,5.2434,1.2812,1.3284,3.0176,1.0565,4.8666,2.1586,1.707,1.1452,2.1173,2.7457,3.8237,3.3889,1.9982.6061,3.1026-.4222,5.3062-.1108,2.2461.3785,2.7348,1.7244,4.8139,1.7999h.0173c2.0958-.0755,2.4162-1.3656,4.7995-1.7921,2.1269-.3102,3.4045.705,5.3211.103,1.722-.6373,2.1209-2.2521,3.8238-3.3889,1.7879-1.065,3.4769-.7637,4.8588-2.1461,1.235-1.5124.8182-3.2793,1.5333-5.2763.769-2.0149,2.3371-2.7774,2.3371-4.8959,0-2.0946-1.501-2.8067-2.3563-4.8938-.708-2.1542-.3151-3.8549-1.5273-5.2631-1.2944-1.3237-3.1703-1.1168-4.8456-2.1398-1.7095-1.1581-2.1173-2.7534-3.8238-3.3889-1.9041-.5882-3.1313.4031-5.3062.1105-2.3395-.4132-2.7318-1.7222-4.8144-1.7995h-.0174s0,0,0,0ZM24.9035,31.1281c-11.1269,0-18.5594-5.744-18.5594-13.0894S13.7784,4.9493,24.9035,4.9493c11.1479,0,18.5587,5.7446,18.5587,13.0894s-7.439,13.0894-18.5587,13.0894h0Z" fill="#9e0621"/>
  <path d="M39.3001,23.4776l-.2456-.0006c-.5804-.006-.7265-.1629-.8978-.6409-.0144-.0371-1.6687-4.757-2.8768-8.2015-.4301-1.2275-.8605-2.455-1.2908-3.6824-.0461-.1336-.1509-.2054-.297-.2042h-1.5921c-.1456-.0012-.2516.0701-.3013.2025l-4.9911,11.9385c-.1024.2444-.1862.3725-.4109.4887-.1731.0863-.4653.0976-.5816.0976-.0161,0-.0282-.0007-.0378-.0007h-.0173l-.1312.003c-.1438,0-.242.0994-.2426.2455v.7715c.0006.1468.0976.2438.2438.2438h3.8855c.1444,0,.2432-.0994.2432-.2444v-.7738c.0012-.1426-.0988-.2426-.2425-.2426l-.4325-.0036c-.3905-.0042-.6882-.0341-.6894-.3708v-.0059c.0006-.1174.0378-.2689.1114-.4486.2497-.6152.5001-1.2297.7493-1.8442h4.4904c.2078.5846.5325,1.6268.5354,1.6376.0012.0035.1186.3648.1557.5127.0174.0683.0258.1294.0258.1827,0,.0042-.0006.009,0,.015-.0072.2049-.1414.3079-.4306.3162l-.4738.009c-.0689,0-.1306.0227-.1755.0677-.0443.0443-.0677.1066-.0677.1773l.0006.003v.7697l-.0006.0006c0,.0689.0228.13.0677.1749.0443.0449.106.0677.1767.0677h5.7405c.1449,0,.2432-.0994.2438-.2444v-.771c-.0007-.1462-.0983-.2456-.2433-.2456ZM33.4633,19.6975h-3.8118l2.173-5.4059,1.6388,5.4059ZM21.3972,20.7229h-.7942c-.1258-.0012-.2138.0767-.2408.2096-.2204,1.3896-.6948,2.6571-2.7451,2.6594-1.3291-.0012-2.0676-.8925-2.4803-2.1311-.4109-1.2381-.4888-2.8181-.4888-4.1754,0-.9292.151-2.2736.5864-3.3832.4366-1.1107,1.1529-1.9811,2.2838-1.9811,1.8676.0024,2.4168.9979,2.7157,2.6306.0281.1476.1084.2201.245.2177h.79c.1456,0,.2438-.0988.245-.2435v-3.534c-.0012-.1435-.1006-.2441-.2444-.2441h-.808c-.1227-.0018-.1779.062-.2336.1842-.103.2195-.1719.3378-.4187.3396-.1491,0-.2635-.0545-.4582-.1491-.0509-.0236-.106-.0515-.1689-.0802-.4391-.1821-1.0824-.3899-2.1749-.3899-1.8783,0-3.45.7157-4.5509,1.9649-1.1015,1.25-1.7322,3.0313-1.7322,5.16,0,1.7011.4923,3.4686,1.5279,4.8109,1.0344,1.3435,2.6127,2.261,4.7785,2.2605,1.1991,0,1.9598-.2108,2.4612-.3498.2545-.0707.4384-.121.5816-.121.1306.0012.2204.0647.2851.2073.0569.1306.1491.1545.227.1533h.0024v-.0024l.8104.0024c.145,0,.2438-.0982.2438-.2432v-3.5278c0-.1438-.1007-.2445-.245-.2445Z" fill="#042f5f"/>
  <path d="M28.3805,16.028c-.0348-.0488-.0946-.0509-.1437-.0509-.0054,0-.0114-.0006-.0174,0h-1.637c-.1498-.0018-.2096.0779-.2246.1437-.1234.4941-.3606.9973-.7062,1.4941-.3182-.4737-.6362-.9475-.9541-1.4214,1.0218-.4537,1.5268-.9934,1.5273-1.6504-.0018-.9272-.7541-1.5486-1.8628-1.5498-1.05.0018-2.1167.5555-2.1186,1.7984,0,.5151.2222.9008.4468,1.2075-.8625.2821-1.7634,1.026-1.7651,2.0419,0,.0105,0,.0216.0006.033.0228,1.185,1.032,1.9804,2.4983,1.9804h.0036c.5091,0,1.2416-.0983,1.8556-.5655.4085.3869,1.0159.4229,1.2332.424.0455,0,.0749-.0024.0803-.0024h.6553c.1497.0024.2031-.0791.2306-.1522l.2-.4773c.0144-.0353.0228-.0677.0228-.0964,0-.0252-.0066-.0491-.0198-.0683-.0371-.0516-.1018-.0539-.1437-.0551-.0078,0-.0144,0-.0204.0012h-.3042c-.5534,0-.8631-.39-.9374-.496.3391-.3402.4373-.4794.6253-.7469.0317-.0443.0647-.0916.1012-.1438.1653-.2324.3983-.6133.4007-.6175.1018-.1563.1599-.2477.3169-.2483h.2228c.1042.0006.1797-.0515.2287-.1539l.1941-.4411c.0192-.0479.0293-.0872.0293-.1213,0-.0251-.0061-.0472-.0187-.0658h0ZM23.1707,16.6856l1.4998,2.0625c-.2749.2743-.5552.5146-1.0296.5157-.7415-.0024-1.1955-.4791-1.1973-1.2602-.0006-.504.3001-1.0488.7271-1.318h0ZM24.1285,15.5479c-.3025-.4442-.4432-.7268-.4439-1.1617.0012-.3522.2037-.7244.6511-.7244.3881.0006.563.3516.5643.711-.0006.5181-.2504.899-.7715,1.1752Z" fill="#042f5f"/>
</svg>