<?xml version="1.0" encoding="UTF-8"?>
<svg id="Layer_1" xmlns="http://www.w3.org/2000/svg" version="1.1" viewBox="0 0 49.5277 36">
  <!-- Generator: Adobe Illustrator 29.7.1, SVG Export Plug-In . SVG Version: 2.1.1 Build 8)  -->
  <path d="M24.8804,1.1731c1.9193-.0684,2.7111,1.3623,4.5924,1.645,2.0262.3043,3.2821-.8932,5.2441-.3038,2.0961.6298,2.5417,2.335,4.4203,3.4571,1.6767,1.0012,3.1929.676,4.5581,2.0721,1.5476,1.5832,1.0722,3.2998,1.9533,5.3309.847,1.9525,2.4633,2.7484,2.4498,4.8764-.0135,2.0618-1.5595,2.8289-2.3812,4.7199-.8167,1.8786-.4458,3.4114-1.8266,4.9244-1.4014,1.5357-3.0308,1.2166-4.822,2.2724-1.985,1.1704-2.5216,2.9577-4.761,3.4969-1.7466.4202-2.8062-.4867-4.595-.3202-2.0647.1919-3.0318,1.5033-5.106,1.4848-1.9631-.0179-2.8492-1.3689-4.8231-1.4399-2.1473-.6409-3.6931.714-5.7324-.2051-1.6009-.7222-1.9177-1.9982-3.3663-2.9907-1.7572-1.2042-3.5379-.7415-4.9273-2.3561-1.2409-1.442-.9408-2.8252-1.6447-4.5924-.8463-2.123-2.5111-3.0638-2.3991-5.3468.0979-1.994,1.4637-2.7621,2.2619-4.5924.8455-1.9388.4548-3.546,1.9193-5.0723,1.3325-1.389,2.8273-1.0973,4.4551-2.1249,1.7654-1.1147,2.147-2.7222,4.1125-3.4273,2.0127-.7219,3.3697.3928,5.4832.0684,1.9971-.3062,1.3963-1.4502,4.935-1.5766h0Z" fill="#cf4037" fill-rule="evenodd"/>
  <path d="M22.7233,6.3594c1.7429-.2027,2.7484-.1246,4.4984,0,6.878.4889,14.6461,3.7847,15.3524,11.8328.4105,4.676-5.9066,10.8445-14.8638,11.2458-1.2517.0491-3.2174-.0098-4.4005,0-3.276.0391-8.6447-1.1049-12.3211-3.9114-.8022-.6063-4.0093-4.0853-4.0093-7.0409v-1.0759c.0003-4.9664,5.4634-9.8552,15.7439-11.0504Z" fill="#2d509f" fill-rule="evenodd"/>
  <path d="M15.2308,10.8018h.9777c1.2132,0,2.7185.88,2.836.88.137,0,.264-.1663.5868-.4891h1.0756v4.8896h-1.5645c0-1.6432-.7829-3.5706-2.5425-3.6184-1.8285-.0494-2.6821,2.8634-2.681,5.1158.0013,2.3096.3511,5.3154,2.8083,5.2153,1.4935-.0607,2.5071-1.3037,2.4152-2.7035l2.1977-.0048s-.3088,4.6008-4.6425,4.6008h-1.1736c-3.7833,0-6.0626-4.3852-6.0626-6.2582v-1.5648c-.0003-3.8541,3.8921-6.0629,5.7694-6.0629h0ZM30.7104,11.1006h2.865c.997,2.9922.5187,1.7255,2.0932,6.4485.5868,1.7603,1.5059,5.4666,3.4222,5.1831v1.5648h-7.5295v-1.5648c.284.0293.2249,0,.4894,0,.9093,0,1.4668-.2154,1.4668-.8806,0-.1953-.4305-1.4864-.5868-1.7601h-4.2054c-.185.264-.6842,1.2029-.6842,1.7601,0,.7631.9975.8806,1.7601.8806v1.4668h-5.9655v-1.4668c1.707-.152,2.401-1.6086,2.401-1.6086l4.4736-10.0231h0Z" fill="#fff" fill-rule="evenodd"/>
  <path d="M24.0315,12.4643c.7238,0,1.3694.5477,1.3694,1.2712,0,1.0366-1.0759,1.5452-1.0759,1.9559,0,.2347.5868,1.2221.7826,1.4668.3025-.2542.4889-.4986.4889-.8798,0-.4891-.411-.3814-.5868-.3912.0293-.2054.0779-.2347,0-.6847h2.3469c.0459.5709-.0053.4181,0,.6847-.8368.056-.88.5279-1.5648,1.9557.0623.0095.2861.5617.5387.0985.2494.0465.497.0924.5372.0974-.264.5187-.5868.9774-1.1733.9774-.4794,0-.6068-.2933-.7824-.2933,0,0-.4889.4894-1.5648.4894-.8507,0-2.0533-.5377-2.0533-1.8583,0-1.3884,1.4668-1.9654,1.4668-2.2492,0,0-.2933-.8019-.2933-.9777-.0005-.998.6253-1.6629,1.564-1.6629h0Z" fill="#fff" fill-rule="evenodd"/>
  <path d="M24.1294,13.2466c.2835,0,.2935.1565.2935.3912,0,.3521-.0491.3424-.5868.7821-.0391-.3519,0-.4205,0-.6844-.0003-.4107.0879-.4889.2933-.4889ZM31.0723,14.4199l1.3034,4.0336-2.9661-.0238,1.6627-4.0098ZM23.2493,16.4736c.0488.0977.6063,1.144.9777,1.4668,0,0-.0684.0979-.4889.0979-.3619,0-.9949-.3326-.9706-.9579.0169-.4413.4817-.6068.4817-.6068Z" fill="#2d509f" fill-rule="evenodd"/>
</svg>