<?xml version="1.0" encoding="UTF-8"?>
<svg id="Layer_1" xmlns="http://www.w3.org/2000/svg" version="1.1" viewBox="0 0 36 36">
  <!-- Generator: Adobe Illustrator 29.7.1, SVG Export Plug-In . SVG Version: 2.1.1 Build 8)  -->
  <path d="M10.7142,9.7442c.6322-.1846,1.0322.0714,1.5173.408.9939.6894,5.1487,5.4736,5.6264,5.5579.202.0572.2886-.1031.4238-.1934,1.6603-1.1092,4.0126-4.7172,5.6169-5.5578,1.5103-.7914,2.8978.7478,2.1095,2.1012l-5.8144,5.8149c-.078.4385,5.2613,5.2721,5.91,6.1042.5711,1.5854-.5289,2.6778-2.1176,2.1094l-5.9656-5.887c-.4402-.0777-5.293,5.2409-6.1282,5.8873-1.5378.5103-2.8235-.8591-1.8881-2.3261.6816-1.0691,5.5866-5.1969,5.6806-5.726.0574-.2013-.1035-.2874-.1942-.4221-1.1135-1.6538-4.7356-3.997-5.5795-5.595-.4489-.8501-.1776-1.9891.8032-2.2754h0Z" fill="#e87009"/>
  <path d="M25.0438,3.7396c4.3304-.7355,7.9214,2.5353,7.1675,6.9168-.2203,1.2803-2.9605,4.9607-4.1465,5.2522-.8747.215-1.9006-.6979-1.8416-1.6158.0751-1.1657,2.666-2.4854,3.0364-4.1263.5187-2.2976-1.4603-4.0738-3.7174-3.4758-1.796.4758-3.0075,4.0322-5.0062,2.7689-2.3106-1.4605,2.9024-5.4472,4.5078-5.7198h0Z" fill="#e87009"/>
  <path d="M8.0291,3.7364c1.4655-.2986,3.088-.0617,4.3828.6619,1.1729.6555,4.9949,3.8709,2.9677,5.0975-1.9747,1.1948-3.1639-2.2438-4.862-2.7636-3.0859-.9448-4.9615,2.1778-3.1961,4.7433.7818,1.1362,3.084,2.118,2.1257,3.7088-1.1758,1.952-3.7967-1.0631-4.5869-2.149-2.4154-3.3197-.8779-8.4744,3.1689-9.2989Z" fill="#e87009"/>
  <path d="M27.278,20.2309c.2716-.0606.5576-.0946.8343-.0482.6108.1023,2.948,2.6903,3.3503,3.3656,3.3849,5.6822-3.6436,11.4999-8.829,7.4569-1.0931-.8522-4.1463-3.5993-1.78-4.6845,1.8565-.8514,3.2505,3.4826,5.8669,3.1881,1.5409-.1734,2.8352-1.8858,2.624-3.3967-.2759-1.975-3.7707-3.4855-2.9599-5.2026.1681-.356.5137-.5939.8933-.6788v.0002Z" fill="#e87009"/>
  <path d="M7.5765,20.2318c1.0952-.3315,2.1186.2418,2.0999,1.4092-.0211,1.3177-2.8643,2.7351-3.1088,4.513-.2162,1.5723,1.1917,3.3155,2.7733,3.3831,2.2899.098,3.642-3.0558,4.9583-3.2976,1.3323-.2447,2.0429,1.2367,1.4127,2.3198-.1672.2874-2.2174,2.2587-2.5907,2.5458-5.3731,4.1336-12.6903-2.5114-7.9351-8.5733.2761-.3519,2.1232-2.2193,2.3905-2.3002v.0002Z" fill="#e87009"/>
</svg>