<?xml version="1.0" encoding="UTF-8"?><svg id="Layer_1" xmlns="http://www.w3.org/2000/svg" viewBox="0 0 179.3691 36"><defs><style>.cls-1{fill:#011f52;}.cls-2{fill:#fff;}</style></defs><path class="cls-2" d="M9.6586,9.503c.6506-.19,1.0623.0735,1.5617.4199,1.0229.7096,5.2992,5.6335,5.7908,5.7203.2079.0589.297-.1061.4361-.1991,1.7089-1.1417,4.1298-4.855,5.781-5.7202,1.5544-.8145,2.9825.7696,2.1712,2.1626l-5.9843,5.9848c-.0803.4514,5.415,5.4261,6.0826,6.2826.5877,1.6317-.5443,2.756-2.1795,2.171l-6.14-6.059c-.453-.0799-5.4477,5.394-6.3072,6.0593-1.5827.5252-2.906-.8842-1.9433-2.3941.7016-1.1004,5.7497-5.3488,5.8466-5.8933.0591-.2071-.1065-.2958-.1998-.4344-1.1461-1.7022-4.8739-4.1138-5.7425-5.7585-.4621-.875-.1828-2.0472.8267-2.3419Z"/><path class="cls-2" d="M24.4068,3.323c4.4569-.757,8.1528,2.6094,7.3769,7.1189-.2267,1.3177-3.047,5.1056-4.2677,5.4056-.9003.2212-1.9562-.7182-1.8953-1.663.0772-1.1997,2.7438-2.558,3.1251-4.2469.5338-2.3648-1.503-4.1929-3.826-3.5774-1.8485.4897-3.0954,4.1499-5.1525,2.8497-2.3781-1.5031,2.9872-5.6063,4.6395-5.8869Z"/><path class="cls-2" d="M6.8951,3.3196c1.5083-.3073,3.1782-.0635,4.5108.6813,1.2072.6747,5.1409,3.984,3.0543,5.2465-2.0324,1.2297-3.2563-2.3093-5.004-2.8444-3.1761-.9723-5.1064,2.2414-3.2894,4.8819.8046,1.1693,3.1741,2.1798,2.1878,3.8171-1.2102,2.0091-3.9077-1.0941-4.7209-2.2118-2.4861-3.4167-.9037-8.7221,3.2614-9.5707Z"/><path class="cls-2" d="M26.7063,20.2961c.2796-.0624.574-.0973.8587-.0496.6286.1053,3.0341,2.7689,3.4482,3.464,3.4839,5.8481-3.7501,11.8358-9.0869,7.6747-1.125-.8771-4.2674-3.7045-1.832-4.8214,1.9108-.8763,3.3454,3.5843,6.0383,3.2812,1.5858-.1785,2.918-1.9408,2.7007-3.4959-.284-2.0327-3.8809-3.5873-3.0463-5.3546.173-.3664.5287-.6113.9194-.6986Z"/><path class="cls-2" d="M6.4292,20.297c1.1272-.3411,2.1805.2489,2.1612,1.4504-.0217,1.3561-2.948,2.8151-3.1996,4.6448-.2225,1.6182,1.2266,3.4123,2.8543,3.482,2.3567.1009,3.7485-3.1451,5.1031-3.3939,1.3713-.2518,2.1026,1.2729,1.454,2.3876-.1721.2958-2.2822,2.3246-2.6664,2.6202-5.5301,4.2544-13.061-2.5848-8.167-8.8237.2841-.3622,2.1852-2.2841,2.4603-2.3673Z"/><path class="cls-1" d="M148.7253,14.9691c1.4147,1.4132,2.1365,2.8399,4.4346,1.3778.4026-.515,3.4638-3.9271,3.7354-3.9271h3.2483c-.2344,1.396-4.7262,4.5837-4.732,5.5886l.1925.4014,4.445,4.5964c.4746.899-2.6454.6663-3.2016.443-.8571-.3442-2.985-3.5541-4.0756-4.1766-.612-.3493-1.5901-.2064-2.2853-.098-.7702.3058-4.0588,4.4231-4.4189,4.4231h-3.0514l.1871-.8924,4.4489-4.5988c.3497-.577-.6036-.6794-.6986-.7841-.6553-.7213-1.3939-1.6051-2.0667-2.3537-.6404-.7125-1.6918-1.7003-1.8707-2.5489h3.2483c.1775,0,2.1129,2.2018,2.4608,2.5493Z"/><path class="cls-1" d="M124.1169,12.4198c.0504.2856-.0497.4807-.1546.7285-.6252,1.4764-4.8673,8.0937-5.9537,9.3653-1.3027,1.5247-4.0919,1.5244-5.5938.2882-2.0898-3.4783-4.5999-6.76-6.4096-10.382h2.8546c.492,0,4.5168,7.2043,5.3291,8.2227.4292.5381.902.9022,1.5604.4033l5.5131-8.626h2.8546Z"/><path class="cls-1" d="M47.1421,20.2638c.0316-.3566-.2105-.6219-.3629-.9133-.6329-1.2098-2.1848-4.1489-2.9818-5.07-.4401-.5086-.9668-.6597-1.6386-.4505-.7397.2303-4.8535,8.4064-5.7477,9.5696-.4763.393-1.2695.1347-1.8678.1969-.0335-.5587.3138-1.0306.5569-1.5027,1.5527-3.016,3.67-5.8962,5.181-8.9585.5217-.9431,3.0643-.8861,4.0014-.7106.4019.0753.5497.3078.7788.5969,2.1496,2.7127,3.6513,6.9123,5.7317,9.7826l.0901.7924c-.4591-.0299-.9967.0874-1.4367-.0397-.7174-.2072-1.1563-1.9204-1.4184-1.9204h-7.5794c-.1239-.3033.2465-1.3727.4922-1.3727h6.2013Z"/><path class="cls-1" d="M55.0168,20.7541c.1811.8119,1.0936,1.3552,1.8878,1.4542,1.8747.2337,6.3369.2015,8.2584.0241.5015-.0463.9512-.09,1.3746-.3956.2082-.1502.8818-1.1326.8818-1.2788v-8.0402c0-.5211,1.7718-.1908,1.7718-.0981v8.1382c0,.0642-.2896,1.0733-.3505,1.2196-.4735,1.1376-1.6999,1.7221-2.8898,1.8279-2.1073.1874-8.0388.2729-10.0014-.0546-1.1237-.1875-2.7045-1.4159-2.7045-2.6008v-8.5304c0-.0927,1.7718-.4231,1.7718.0981v8.2363Z"/><path class="cls-1" d="M79.8219,13.7925v9.5109c0,.4199-1.7718.4199-1.7718,0v-9.5109c-.9871-.1049-6.6732.2124-7.0757-.2063-.1218-.1268-.0251-1.3625.2838-1.3625h15.3556c.4124,0,.4125,1.5688,0,1.5688h-6.7919Z"/><path class="cls-1" d="M178.2553,12.4198l-.1875.6957-4.5236,4.7237c.3805,1.2636,4.6097,4.4492,4.687,5.2981.0658.7218-2.7392.5591-3.2349.2749-1.1223-.6434-2.7537-3.121-3.8375-4.0215-.5424-.3759-1.6333-.4176-2.2507-.2986-.9114.1757-3.5301,3.6705-4.4843,4.3567-.5274.1713-3.6943.4912-3.2013-.4426,1.5189-1.68,3.2254-3.2706,4.6375-4.9978-.0061-1.0333-4.5366-4.1898-4.732-5.5886h3.2483c.2855,0,3.4916,3.6043,3.9286,4.127,1.0156.48,1.9185.5712,2.8712-.0989.712-.5009,3.5525-4.0281,3.831-4.0281h3.2483Z"/><path class="cls-1" d="M142.0324,15.6548c-.2009-1.7787-1.4347-3.0843-3.2409-3.2431-2.2975-.202-8.8531-.3021-10.9853.0551-1.2532.2099-2.5144,1.5454-2.6876,2.8137-.1447,1.0602-.1665,4.4282-.0048,5.461.1822,1.1633,1.271,2.1924,2.3554,2.5562,1.6288.5465,8.7345.4785,10.7305.3067,1.4607-.1257,2.9742-.7172,3.5343-2.1664.424-1.0973.4389-4.5381.2983-5.7832ZM139.0563,20.7316c-.269.4767-.7301.6521-1.2528.7131-1.8885.2205-6.3483.1804-8.2821.005-.6063-.055-1.1194-.1407-1.4446-.7181-.3161-.5612-.332-4.2775-.2069-5.0638.1072-.6746.6574-1.1104,1.3126-1.2419,1.2814-.2572,7.0098-.218,8.4245-.0498.5138.0611,1.2968.3481,1.524.8352.2807.6017.2525,4.9405-.0746,5.5203Z"/><path class="cls-1" d="M103.773,13.2706c-.3581-.3578-1.2885-.7925-1.7992-.8552-2.1281-.2612-8.504-.2557-10.6397-.0002-.8116.0971-1.8482.7961-2.2155,1.5191-.692,1.3625-.7,7.078.1819,8.3596.4715.6853,1.6184,1.2167,2.4312,1.3041,2.1927.2359,7.6617.245,9.8444,0,1.9025-.2134,2.8999-1.3832,3.0576-3.2295.1395-1.6325.2865-5.9513-.8609-7.098ZM102.86,20.3665c-.1501,1.2537-.8684,1.754-2.0617,1.8683-1.9309.1849-6.5879.2171-8.4797-.0056-.8374-.0986-1.7216-.8486-1.8546-1.6824-.1434-.8988-.1436-4.374,0-5.2724.1525-.954,1.0097-1.4858,1.9111-1.6262,1.7497-.2724,6.1838-.2144,8.0263-.0587,1.2344.1043,2.2956.5004,2.4584,1.8654.1267,1.0621.1274,3.8502.0003,4.9116Z"/></svg>