<?xml version="1.0" encoding="UTF-8"?><svg id="Layer_1" xmlns="http://www.w3.org/2000/svg" viewBox="0 0 36 36"><defs><style>.cls-1{fill:#e87009;}</style></defs><path class="cls-1" d="M9.6629,8.5529c.7234-.2112,1.1811.0817,1.7363.4669,1.1373.7889,5.8917,6.2635,6.4383,6.3599.2312.0654.3302-.118.4849-.2213,1.8999-1.2693,4.5916-5.3979,6.4274-6.3598,1.7282-.9056,3.316.8557,2.4139,2.4044l-6.6534,6.654c-.0892.5018,6.0205,6.0329,6.7628,6.9851.6535,1.8142-.6052,3.0642-2.4232,2.4138l-6.8265-6.7365c-.5037-.0889-6.0568,5.9972-7.0125,6.7369-1.7597.5839-3.2309-.9831-2.1606-2.6618.78-1.2234,6.3927-5.9468,6.5003-6.5523.0657-.2303-.1184-.3289-.2222-.483-1.2742-1.8925-5.4189-4.5738-6.3846-6.4024-.5137-.9728-.2032-2.2761.9191-2.6038Z"/><path class="cls-1" d="M26.0602,1.6818c4.9553-.8416,9.0645,2.9012,8.2018,7.9149-.2521,1.4651-3.3877,5.6765-4.7449,6.0101-1.0009.246-2.1749-.7986-2.1073-1.849.0859-1.3339,3.0507-2.844,3.4745-4.7217.5935-2.6292-1.671-4.6617-4.2538-3.9774-2.0552.5445-3.4415,4.614-5.7286,3.1684-2.644-1.6712,3.3212-6.2332,5.1583-6.5452Z"/><path class="cls-1" d="M6.5903,1.6781c1.677-.3417,3.5336-.0706,5.0152.7574,1.3422.7501,5.7157,4.4295,3.3959,5.8331-2.2596,1.3672-3.6204-2.5676-5.5636-3.1624-3.5312-1.0811-5.6774,2.4921-3.6573,5.4278.8946,1.3001,3.529,2.4236,2.4324,4.244-1.3455,2.2337-4.3446-1.2165-5.2488-2.4591C.2001,8.5202,1.9595,2.6216,6.5903,1.6781Z"/><path class="cls-1" d="M28.6168,20.5528c.3108-.0694.6381-.1082.9547-.0552.6989.1171,3.3734,3.0785,3.8338,3.8513,3.8734,6.5021-4.1694,13.1593-10.103,8.5329-1.2508-.9752-4.7446-4.1187-2.0369-5.3605,2.1244-.9743,3.7195,3.9851,6.7135,3.6481,1.7632-.1984,3.2443-2.1579,3.0027-3.8868-.3157-2.26-4.3148-3.9885-3.387-5.9533.1924-.4074.5878-.6796,1.0222-.7767Z"/><path class="cls-1" d="M6.0724,20.5539c1.2532-.3793,2.4243.2767,2.4029,1.6125-.0241,1.5078-3.2776,3.1298-3.5574,5.1642-.2474,1.7992,1.3637,3.7939,3.1735,3.8713,2.6203.1121,4.1676-3.4968,5.6738-3.7734,1.5246-.28,2.3377,1.4152,1.6166,2.6545-.1913.3289-2.5374,2.5846-2.9645,2.9132-6.1485,4.7301-14.5215-2.8738-9.0802-9.8104.3159-.4027,2.4296-2.5395,2.7354-2.6321Z"/></svg>