<?xml version="1.0" encoding="UTF-8"?><svg id="Layer_1" xmlns="http://www.w3.org/2000/svg" viewBox="0 0 125.5628 36"><defs><style>.cls-1{fill:#fff;fill-rule:evenodd;}</style></defs><path class="cls-1" d="M85.418,2.6859c1.3995.841,1.9916,2.1605,1.9916,3.8794,0,.916-.1136,2.3304-.2245,3.2097l-1.0287,8.0472c-.3692,2.8906-1.6964,3.2941-4.2414,3.8789-1.5838.3299-3.2807.4757-5.5654.4757-2.3581,0-4.6776-.1818-6.2609-1.0606-1.4402-.8043-2.2504-2.1581-2.2504-4.4639,0-1.2446.3301-2.6368,1.0325-3.7356,1.2892-2.044,3.3541-2.5234,5.1957-2.8128l6.3011-.9511c.038-.1825.1093-1.3419.1093-1.7453,0-.4383-.1457-.8423-.5144-1.0241-.4431-.2563-1.2554-.3653-2.2857-.3653-2.2123,0-5.0875.8418-5.9721,1.0229-.1811.0331-.2524.0331-.2947.0331-.2159,0-.3676-.1049-.4013-.3619l-.3354-2.8899c-.0723-.4753.224-.6982.5556-.8418.7019-.2947,4.4574-1.3923,8.6216-1.3923,2.544,0,4.3513.3665,5.5675,1.0975ZM79.41,17.7855c-.2593.0747-1.3652.293-2.4711.293-1.2913,0-2.4331-.4753-2.4331-2.0143,0-1.646.9216-2.4879,2.507-2.7429l2.9866-.4719-.5894,4.9361ZM103.922,3.177c-.8112-.3276-2.8569-1.1615-5.7353-1.1615-2.2488,0-5.3816.2195-7.3341,2.307-1.2163,1.3536-1.6958,3.1829-1.6958,4.977,0,1.8291.5529,2.9597,1.3995,3.6555,1.1059.9552,2.6908,1.1701,4.0919,1.4633,1.3256.2944,1.8807.5137,1.8807,1.4275,0,.5117-.1088.9888-.5149,1.354-.5165.4763-1.2908.5857-1.9176.5857-1.9894,0-4.646-.658-5.2354-.7668-.2572-.039-.5519.0343-.658.5096l-.591,2.5998c-.0407.1465-.0729.3283-.0729.4753,0,.3661.2154.5128.4415.586.7383.255,3.4977.953,6.6676.953,3.2095,0,5.9705-.844,7.557-2.9281,1.0325-1.3538,1.4397-3.1125,1.4397-4.7961,0-3.4737-2.2879-4.2405-4.5002-4.6805-.7373-.1448-1.3979-.259-1.916-.4383-.5889-.2193-.995-.5515-.995-1.2455,0-.5128.1495-.9888.5899-1.2796.554-.4042,1.4027-.4407,1.9921-.4407,1.8421,0,3.3734.5789,3.7796.6517.1838.0368.2213.0368.2942.0368.2947,0,.5551-.1095.6639-.5144l.6628-2.4139c.0745-.2563.0745-.3339.0745-.403,0-.2193-.0745-.4018-.3686-.5137ZM117.8069,14.7701c-.6724,0-.8.3675-.9248,1.3499-.0547.3816-.1152.771-.1152,1.1494,0,.4957.1152.7396.6344.7396.659,0,.8075-.349.9344-1.2647.0563-.4006.1189-.8136.1189-1.2029,0-.257-.022-.4471-.1077-.562-.0943-.1462-.2674-.2093-.5401-.2093ZM110.9893,15.9925c.1693-1.1596.3708-1.2119.9645-1.2119.2036,0,.5203.0411.5931.0523l-.3799,3.1165c-.053.0061-.3199.0598-.5315.0598-.2754,0-.4683-.0313-.5931-.1445-.1104-.1088-.1682-.2996-.1682-.6223,0-.4184.0488-.8401.1152-1.2499ZM122.2948,2.6861c-1.2131-.7315-3.0177-1.0978-5.5617-1.0978-4.1643,0-7.924,1.0978-8.6249,1.392-.3317.1443-.629.3665-.5503.8423l.3295,2.8894c.0413.257.1832.3624.4072.3624.0337,0,.1082,0,.2974-.0336.8798-.1811,3.7565-1.0223,5.9689-1.0223,1.0304,0,1.8394.1088,2.2836.365.3692.182.5181.5855.5181,1.0238,0,.4035-.0766,1.5634-.1141,1.7454l-6.3027.9513c-1.8432.2891-3.9066.769-5.1979,2.813-.6949,1.0985-1.0304,2.4905-1.0304,3.735,0,2.3061.8091,3.6604,2.2472,4.464,1.5854.8788,3.9087,1.0606,6.2646,1.0606,2.289,0,3.9843-.1453,5.5676-.4753,2.544-.5853,3.869-.9888,4.2393-3.8794l1.0282-8.0469c.1109-.8793.2261-2.2939.2261-3.2094,0-1.7188-.5947-3.0383-1.9959-3.8794ZM113.4218,19.043c.6494-.1993.6896-.6428.7239-.9073l.8267-6.7131c.0257-.212-.134-.2222-.2749-.1998l-1.4976.2195c-.1795.0336-.2465.1246-.2663.3086l-.1613,1.2453.0327.6753c-.1173-.0418-.6574-.1922-1.3181-.1922-1.2254,0-1.8716.5607-2.2322,1.449-.2674.6534-.419,1.5599-.419,2.3004,0,.8878.2261,1.4249.7276,1.7203.4372.2651,1.063.351,1.9117.351.5872,0,1.3513-.0747,1.9466-.257ZM120.1141,17.7269c-.3633.9508-1.115,1.5731-2.8617,1.5731-.8048,0-1.3706-.1406-1.7505-.383-.5862-.3587-.7592-.9618-.7592-1.6969,0-.7639.1597-1.8164.4929-2.4499.4115-.7829,1.1782-1.2908,2.7315-1.2908.8996,0,1.4976.1701,1.8801.4553.4919.3699.6296.9401.6296,1.6349,0,.6661-.1329,1.5529-.3627,2.1574ZM68.1624,3.5512c0-.2185-.1152-.4025-.4051-.5463-.8493-.3665-3.4661-.9895-6.4527-.9895-4.9766,0-7.7393,1.4993-9.2837,4.3921-1.1802,2.2309-1.6971,5.453-1.6971,8.0104,0,2.6349.476,4.5757,1.9547,5.8565,1.3589,1.1355,3.4607,1.7203,6.5576,1.7203,2.985,0,5.8226-.5505,6.7806-.9878.4056-.184.5931-.4035.5546-.8415l-.2202-2.7463c-.0375-.3662-.2958-.4755-.5176-.4755-.0718,0-.1463,0-.2952.0361-1.5088.3305-2.5429.5144-3.8685.5144-1.4756,0-2.4706-.2942-3.098-.879-.5888-.586-.8466-1.4646-.8466-2.6723,0-1.3913.2577-3.2893.6633-4.5343.6998-2.0486,2.0264-2.8916,4.6444-2.8916,1.6203,0,2.9491.2925,3.7549.4763.187.0368.2636.0368.3359.0368.224,0,.479-.1093.5888-.4775l.7764-2.5964c.037-.1475.0734-.2952.0734-.4047Z"/><path class="cls-1" d="M42.7065,1.991H14.0605c-1.0454.0246-2.0441.9187-2.1659,1.951l-2.5091,21.0961c-.1245,1.0321.5841,1.8777,1.6228,1.8777h3.4295c1.0419,0,1.9892-.8457,2.1144-1.8777l.9905-8.3473c.1215-1.0272.9914-2.3291,1.9333-2.8818l6.3557-3.7405c.9419-.5597,2.3755-.5553,3.187.0029l5.406,3.7295c.8091.5607,1.3684,1.8627,1.2465,2.8899l-1.0076,8.4991c-.152,1.0591-1.0748,1.8799-2.1142,1.8799h-14.3519c-1.0409,0-1.9868.8406-2.1101,1.8758l-.4054,3.4039c-.1213,1.0321.6265,1.8739,1.6682,1.8739h21.5348c1.0404,0,1.9924-.8417,2.112-1.8739l3.3775-28.4784c.1233-1.0335-.6284-1.8802-1.6681-1.8802Z"/><path class="cls-1" d="M1.4501,32.3819c-.1186,1.0189.6226,1.8546,1.6508,1.8546h3.3819c1.0248,0,1.9679-.8357,2.0892-1.8546l.4101-3.4603c.1225-1.0221-.623-1.8537-1.6471-1.8537h-3.3871c-1.0267,0-1.9647.8316-2.0843,1.8537l-.4135,3.4603Z"/><path class="cls-1" d="M60.0187,26.3543c-2.2525,0-3.2673.8177-3.7822,2.0452-.3536.8508-.5465,2.2379-.5465,3.176,0,.8464.1645,1.5629.6767,2.0749.4972.4816,1.3272.7612,2.6533.7612,2.3543,0,3.3552-.8924,3.8428-2.2102.3215-.8323.486-2.1063.486-3.024,0-.8513-.1468-1.539-.6483-2.0335-.4972-.4984-1.3379-.7897-2.6817-.7897ZM60.8154,31.2831c-.194,1.0949-.4994,1.6067-1.6085,1.6067-.4528,0-.7491-.0849-.9393-.265-.2213-.2028-.2792-.524-.2792-.9793,0-.7274.1173-1.5341.2497-2.2482.1918-1.0423.516-1.5217,1.5892-1.5217.4887,0,.7817.101.9736.3054.1956.2074.2518.5118.2518.9511,0,.703-.1034,1.4487-.2374,2.151ZM69.3213,26.3543c-.9264,0-2.1046.1582-2.8708.338-.8868.2037-1.2661.3777-1.3411.9362l-.7989,6.3753c-.0102.1428.0916.2134.2261.2134h1.7944c.1479,0,.2497-.0849.2674-.2134l.7378-5.9526c.1581-.0465.8793-.192,1.5131-.192.3526,0,.591.0737.7378.2487.1029.1171.1473.2913.1473.5284,0,.2039-.015.366-.0445.6142l-.606,4.7533c-.015.1428.0889.2134.2197.2134h1.7987c.1345,0,.2341-.0849.2502-.2134l.6183-4.9003c.0466-.3945.0793-.6149.0793-.9513,0-.5422-.1699-.9367-.449-1.2129-.4362-.438-1.22-.585-2.2799-.585ZM79.552,26.6923c-.2824-.0901-1.1798-.3378-2.3597-.3378-.943,0-2.1941.1304-2.9319,1.0087-.4099.4957-.5846,1.1825-.5846,1.8252,0,.6135.1747,1.0121.4715,1.3053.4694.4631,1.2184.5814,1.7628.6717.3579.0567.6183.1015.8273.2037.2068.0998.3081.2638.3081.5716,0,.2487-.0916.4977-.3081.6717-.2492.2207-.6355.2884-1.0475.2884-.9146,0-1.8994-.2884-2.0886-.3329-.06-.016-.0766-.016-.1034-.016-.0884,0-.1463.0445-.1913.1781l-.2947.936c-.0171.0577-.0171.0859-.0171.1304,0,.1312.0916.1455.1345.174.2502.1192,1.3963.4237,2.663.4237,1.152,0,2.1813-.2478,2.8323-.9197.5122-.5403.7367-1.273.7367-1.989,0-.6454-.1779-1.0696-.4726-1.3458-.3836-.3775-.9768-.5128-1.5656-.6133-.6746-.1295-1.3497-.176-1.3497-.7719,0-.2665.09-.4845.2759-.6466.2792-.2205.7228-.2609,1.0909-.2609.7785,0,1.5335.1757,1.7253.2042.0707.0104.0857.0104.1007.0104.1034,0,.195-.0389.2202-.1416l.2968-.9673c.0445-.1745-.0455-.232-.1313-.2604ZM85.7673,26.5456h-1.9605l.2904-2.3433c.0338-.1903-.0852-.2762-.2904-.247l-1.7071.2935c-.2084.0426-.2963.1441-.3285.3483l-.8241,6.7264c-.0386.3095-.1018.7206-.1018,1.0824,0,.6902.1774,1.1557.5562,1.4794.4019.3222,1.0052.4514,1.8164.4514.9864,0,1.6637-.1903,1.8844-.2631.1773-.0567.2491-.1455.2352-.3348l-.0713-.9513c-.0161-.09-.0638-.191-.2208-.1628-.2224.0445-.6087.1183-1.0459.1183-.3102,0-.5208-.0574-.6494-.1465-.1618-.1178-.2068-.3042-.2068-.5405,0-.2487.045-.6271.0745-.8187l.3949-3.0848h1.9589c.1366,0,.239-.091.2518-.2195l.1468-1.1686c.0171-.1499-.068-.2188-.2031-.2188ZM91.8734,26.3655h-.1522c-1.0175.0326-2.357.1801-3.2518.4848-.4699.1749-.7078.337-.7673.7598l-.793,6.3938c-.0166.1428.1141.2134.2181.2134h1.7966c.1479,0,.2534-.0849.2668-.2134l.7078-5.8085c.2792-.0592,1.0438-.1621,1.9-.1621.2497,0,.2792-.1295.2942-.2896l.134-1.0696c.0246-.2621-.149-.3086-.3531-.3086ZM100.457,26.3543c-.0279,0-.0579,0-.1473.0115l-1.6347.265c-.2047.0282-.2942.1477-.3247.3499l-.5883,4.7538c-.0895.6717-.3113,1.1837-1.3851,1.1837-.4415,0-.7217-.0686-.8953-.2329-.1656-.1456-.2379-.3821-.2379-.6586,0-.2195.0279-.4509.0605-.6707l.6033-4.7414c.0279-.1874-.0895-.2937-.2958-.2604l-1.7076.2765c-.209.0282-.2947.1477-.3226.3499l-.5031,4.0816c-.0429.3066-.105.7449-.105,1.0959,0,.6913.1768,1.1851.5321,1.5373.531.5218,1.4295.716,2.6801.716,2.4465,0,3.607-.8175,3.8589-2.7782l.6339-5.0186c.0268-.1874-.0916-.2604-.2213-.2604ZM106.8711,26.5456h-1.9578l.2936-2.3433c.0295-.1903-.0868-.2762-.2936-.247l-1.7092.2935c-.2063.0426-.2942.1441-.3209.3483l-.8278,6.7264c-.0434.3095-.1029.7206-.1029,1.0824,0,.6902.1752,1.1557.5594,1.4794.3981.3222,1.0004.4514,1.8116.4514.9875,0,1.6621-.1903,1.8828-.2631.1811-.0567.2491-.1455.2406-.3348l-.0766-.9513c-.0155-.09-.0563-.191-.2197-.1628-.2207.0445-.6049.1183-1.0486.1183-.3086,0-.5122-.0574-.6467-.1465-.1607-.1178-.2063-.3042-.2063-.5405,0-.2487.0455-.6271.0745-.8187l.3992-3.0848h1.9584c.1345,0,.2352-.091.2497-.2195l.1452-1.1686c.0171-.1499-.0702-.2188-.2047-.2188ZM112.2586,26.3543c-2.2504,0-3.2647.8177-3.7823,2.0452-.3526.8508-.546,2.2379-.546,3.176,0,.8464.1656,1.5629.6815,2.0749.4956.4816,1.324.7612,2.6463.7612,2.3581,0,3.3606-.8924,3.8449-2.2102.3268-.8323.4844-2.1063.4844-3.024,0-.8513-.1452-1.539-.6446-2.0335-.5037-.4984-1.3443-.7897-2.6844-.7897ZM113.0548,31.2831c-.1875,1.0949-.4994,1.6067-1.6047,1.6067-.4549,0-.7491-.0849-.9425-.265-.2202-.2028-.2786-.524-.2786-.9793,0-.7274.1184-1.5341.2492-2.2482.195-1.0423.5171-1.5217,1.5935-1.5217.4838,0,.7807.101.9719.3054.1865.2074.2486.5118.2486.9511,0,.703-.1007,1.4487-.2374,2.151ZM121.6904,26.3655h-.1479c-1.017.0326-2.357.1801-3.2518.4848-.4715.1749-.7083.337-.77.7598l-.7941,6.3938c-.0123.1428.1179.2134.2197.2134h1.7987c.1457,0,.2497-.0849.2652-.2134l.7062-5.8085c.2834-.0592,1.0438-.1621,1.8978-.1621.2524,0,.2808-.1295.2968-.2896l.1307-1.0696c.0321-.2621-.1468-.3086-.3515-.3086ZM55.0796,26.732c-.3393-.1742-1.3998-.3777-2.4903-.3777-1.9691,0-3.0459.6142-3.6525,1.8267-.427.889-.6317,2.2241-.6317,3.2596,0,.9656.1914,1.6981.6929,2.182.5167.4947,1.3515.7325,2.6057.7325,1.088,0,2.1961-.1933,2.575-.3848.152-.0567.2373-.1295.2198-.3044l-.0679-.8931c-.0174-.1477-.1233-.1894-.2091-.1894-.0444,0-.074,0-.1304.0132-.3395.0888-.9751.2363-1.666.2363-.6654,0-1.0907-.1351-1.3698-.4105-.2373-.2492-.3525-.6422-.3525-1.1847,0-.6566.1326-1.5646.3392-2.1341.3203-.878.897-1.2163,1.9872-1.2163.7052,0,1.3228.146,1.6469.236.164.0441.2969-.0151.3393-.162l.2968-.9026c.015-.0462.015-.0776.015-.1195,0-.0888-.0445-.1465-.1479-.2071Z"/></svg>