<?xml version="1.0" encoding="UTF-8"?><svg id="Layer_1" xmlns="http://www.w3.org/2000/svg" viewBox="0 0 36 36"><defs><style>.cls-1{fill:#fff;fill-rule:evenodd;}</style></defs><path class="cls-1" d="M33.4681,5.5144H11.0823c-.8169.0192-1.5974.7179-1.6926,1.5246l-1.9608,16.4859c-.0973.8065.4564,1.4674,1.2682,1.4674h2.68c.8142,0,1.5545-.6609,1.6524-1.4674l.774-6.5231c.095-.8027.7747-1.8202,1.5108-2.2521l4.9668-2.923c.7361-.4374,1.8564-.434,2.4906.0023l4.2246,2.9145c.6323.4382,1.0694,1.4556.9741,2.2583l-.7874,6.6418c-.1187.8276-.8399,1.4691-1.6522,1.4691h-11.2156c-.8134,0-1.5526.6569-1.6489,1.4659l-.3168,2.66c-.0948.8066.4896,1.4644,1.3036,1.4644h16.8287c.8131,0,1.557-.6578,1.6504-1.4644l2.6394-22.2549c.0963-.8077-.4911-1.4693-1.3036-1.4693Z"/><path class="cls-1" d="M1.2277,29.2638c-.0927.7963.4865,1.4493,1.29,1.4493h2.6428c.8008,0,1.5379-.6531,1.6327-1.4493l.3204-2.7041c.0958-.7987-.4869-1.4486-1.2871-1.4486h-2.6469c-.8024,0-1.5354.6498-1.6288,1.4486l-.3231,2.7041Z"/></svg>