<?xml version="1.0" encoding="UTF-8"?><svg id="Layer_1" xmlns="http://www.w3.org/2000/svg" viewBox="0 0 36 36"><defs><style>.cls-1{fill:#003768;}</style></defs><path class="cls-1" d="M18.353,8.6324c.0392.7844.1177,1.7912.17,2.2357l.0915.8237h-.9021l-.3661-1.3074c-.5099-1.8304-.4968-1.8304-2.9417-1.8304h-1.935l-.0915,2.5756c-.0523,1.4251-.0784,4.4583-.0392,6.7463.0523,3.3993.1046,4.1968.2484,4.3537.1046.1046.6929.2876,1.2943.4184,1.0067.2223,1.1113.2746,1.1505.5622l.0392.3138h-7.7399l.0392-.3269c.0392-.2876.1438-.3399,1.2159-.5491.6406-.1307,1.229-.3007,1.3074-.3792s.1438-2.4187.17-6.9162l.0392-6.7986h-1.9088c-1.0721,0-2.0265.0654-2.1703.1307-.3399.183-.6929.9152-.9806,2.0526-.2353.9544-.2484.9544-.6929.9544h-.4445l.0915-.9413c.0392-.5099.1177-1.4643.1569-2.118s.0915-1.2551.1177-1.3205c.0131-.0915,2.4579-.1307,7.0078-.1177l6.9816.0261.0915,1.412Z"/><path class="cls-1" d="M32.8915,7.3772c.0392.1046.1046,1.0982.1438,2.1834l.0915,2.0003h-.3922c-.3792,0-.4184-.0523-.6014-.7583-.3661-1.2943-.6537-1.9088-.9936-2.0788-.2353-.1177-1.2159-.17-3.4777-.17h-3.1509l-.0784,1.6604c-.0523.9283-.0915,2.2095-.0915,2.8763v1.2028l.7452.0915c.4053.0523,1.3728.0523,2.1703.0131,1.7127-.0784,1.8565-.17,2.1834-1.4905.2092-.8237.2615-.889.6014-.9283l.3792-.0392v6.1579h-.353c-.2746,0-.3792-.0784-.4184-.3007-.2484-1.1767-.3792-1.6735-.523-1.8565-.2353-.3269-1.0329-.4576-2.9809-.4576h-1.8042v3.0986c0,1.7127.0392,3.2424.0784,3.3993.1046.3661.2615.4314,1.6866.6799,1.0852.2092,1.1767.2484,1.2159.536l.0392.3269-3.9353.0131-3.9222.0131v-.353c0-.3269.0523-.353.9806-.5099.536-.0915,1.1113-.2615,1.2682-.4053l.3007-.2353.0392-6.5894c.0261-5.4258,0-6.6155-.1438-6.8247-.1177-.1569-.6014-.3399-1.3466-.523-1.0459-.2615-1.1636-.3138-1.2028-.6014l.0392-.3269h6.7463c5.8703,0,6.7463.0261,6.7855.1961h-.0784Z"/><polygon class="cls-1" points="35.1925 28.1652 35.1925 28.8189 18 28.8189 .8075 28.8189 .8075 28.1652 .8075 27.5115 18 27.5115 35.1925 27.5115 35.1925 28.1652"/></svg>