<?xml version="1.0" encoding="UTF-8"?><svg id="Layer_1" xmlns="http://www.w3.org/2000/svg" viewBox="0 0 36 36"><defs><style>.cls-1{fill:#fff;}</style></defs><path class="cls-1" d="M18.3512,8.6803c.039.7804.1171,1.782.1691,2.2242l.0911.8195h-.8975l-.3642-1.3007c-.5073-1.821-.4943-1.821-2.9266-1.821h-1.9251l-.0911,2.5624c-.052,1.4178-.078,4.4355-.039,6.7118.052,3.3819.1041,4.1753.2471,4.3314.1041.1041.6894.2862,1.2877.4162,1.0016.2211,1.1056.2732,1.1446.5593l.039.3122h-7.7003l.039-.3252c.039-.2862.1431-.3382,1.2097-.5463.6374-.1301,1.2227-.2992,1.3007-.3772s.1431-2.4063.1691-6.8808l.039-6.7638h-1.8991c-1.0666,0-2.0161.065-2.1592.1301-.3382.1821-.6894.9105-.9755,2.0421-.2341.9495-.2471.9495-.6894.9495h-.4422l.0911-.9365c.039-.5073.1171-1.4568.1561-2.1072s.0911-1.2487.1171-1.3137c.013-.0911,2.4454-.1301,6.9719-.1171l6.9459.026.0911,1.4048Z"/><path class="cls-1" d="M32.8153,7.4316c.039.1041.1041,1.0926.1431,2.1722l.0911,1.9901h-.3902c-.3772,0-.4162-.052-.5983-.7544-.3642-1.2877-.6504-1.8991-.9886-2.0682-.2341-.1171-1.2097-.1691-3.4599-.1691h-3.1348l-.078,1.6519c-.052.9235-.0911,2.1982-.0911,2.8616v1.1967l.7414.0911c.4032.052,1.3658.052,2.1592.013,1.704-.078,1.847-.1691,2.1722-1.4828.2081-.8195.2601-.8845.5983-.9235l.3772-.039v6.1264h-.3512c-.2732,0-.3772-.078-.4162-.2992-.2471-1.1707-.3772-1.6649-.5203-1.847-.2341-.3252-1.0276-.4553-2.9657-.4553h-1.795v3.0827c0,1.704.039,3.2258.078,3.3819.1041.3642.2601.4292,1.6779.6764,1.0796.2081,1.1707.2471,1.2097.5333l.039.3252-3.9152.013-3.9022.013v-.3512c0-.3252.052-.3512.9755-.5073.5333-.0911,1.1056-.2601,1.2617-.4032l.2992-.2341.039-6.5557c.026-5.398,0-6.5817-.1431-6.7898-.1171-.1561-.5983-.3382-1.3397-.5203-1.0406-.2601-1.1576-.3122-1.1967-.5983l.039-.3252h6.7118c5.8403,0,6.7118.026,6.7508.1951h-.078Z"/><polygon class="cls-1" points="35.1046 28.1132 35.1046 28.7635 18 28.7635 .8954 28.7635 .8954 28.1132 .8954 27.4628 18 27.4628 35.1046 27.4628 35.1046 28.1132"/></svg>